<svg width="30" height="30" viewBox="0 0 30 30" fill="none" xmlns="http://www.w3.org/2000/svg">
<rect width="30" height="30" rx="15" fill="#3E3F3B"/>
<g clip-path="url(#clip0_199_678)">
<path d="M15 3C8.37264 3 3 8.37264 3 15C3 20.6275 6.87456 25.3498 12.1013 26.6467V18.6672H9.62688V15H12.1013V13.4198C12.1013 9.33552 13.9498 7.4424 17.9597 7.4424C18.72 7.4424 20.0318 7.59168 20.5685 7.74048V11.0645C20.2853 11.0347 19.7933 11.0198 19.1822 11.0198C17.2147 11.0198 16.4544 11.7653 16.4544 13.703V15H20.3741L19.7006 18.6672H16.4544V26.9122C22.3963 26.1946 27.0005 21.1354 27.0005 15C27 8.37264 21.6274 3 15 3Z" fill="white"/>
</g>
<defs>
<clipPath id="clip0_199_678">
<rect width="24" height="24" fill="white" transform="translate(3 3)"/>
</clipPath>
</defs>
</svg>
