<svg width="30" height="30" viewBox="0 0 30 30" fill="none" xmlns="http://www.w3.org/2000/svg">
<rect width="30" height="30" rx="15" fill="#3E3F3B"/>
<g clip-path="url(#clip0_199_658)">
<path d="M15.5 6.0709C18.5727 6.0709 18.9365 6.08437 20.1449 6.13828C21.268 6.1877 21.8744 6.37637 22.2787 6.53359C22.8133 6.74023 23.1996 6.9918 23.5994 7.3916C24.0037 7.7959 24.2508 8.17773 24.4574 8.7123C24.6146 9.1166 24.8033 9.72754 24.8527 10.8461C24.9066 12.059 24.9201 12.4229 24.9201 15.491C24.9201 18.5637 24.9066 18.9275 24.8527 20.1359C24.8033 21.259 24.6146 21.8654 24.4574 22.2697C24.2508 22.8043 23.9992 23.1906 23.5994 23.5904C23.1951 23.9947 22.8133 24.2418 22.2787 24.4484C21.8744 24.6057 21.2635 24.7943 20.1449 24.8438C18.932 24.8977 18.5682 24.9111 15.5 24.9111C12.4273 24.9111 12.0635 24.8977 10.8551 24.8438C9.73203 24.7943 9.12559 24.6057 8.72129 24.4484C8.18672 24.2418 7.80039 23.9902 7.40059 23.5904C6.99629 23.1861 6.74922 22.8043 6.54258 22.2697C6.38535 21.8654 6.19668 21.2545 6.14727 20.1359C6.09336 18.923 6.07988 18.5592 6.07988 15.491C6.07988 12.4184 6.09336 12.0545 6.14727 10.8461C6.19668 9.72305 6.38535 9.1166 6.54258 8.7123C6.74922 8.17773 7.00078 7.79141 7.40059 7.3916C7.80488 6.9873 8.18672 6.74023 8.72129 6.53359C9.12559 6.37637 9.73652 6.1877 10.8551 6.13828C12.0635 6.08437 12.4273 6.0709 15.5 6.0709ZM15.5 4C12.3779 4 11.9871 4.01348 10.7607 4.06738C9.53887 4.12129 8.69883 4.31895 7.97109 4.60195C7.21191 4.89844 6.56953 5.28926 5.93164 5.93164C5.28926 6.56953 4.89844 7.21191 4.60195 7.9666C4.31895 8.69883 4.12129 9.53437 4.06738 10.7562C4.01348 11.9871 4 12.3779 4 15.5C4 18.6221 4.01348 19.0129 4.06738 20.2393C4.12129 21.4611 4.31895 22.3012 4.60195 23.0289C4.89844 23.7881 5.28926 24.4305 5.93164 25.0684C6.56953 25.7062 7.21191 26.1016 7.9666 26.3936C8.69883 26.6766 9.53438 26.8742 10.7562 26.9281C11.9826 26.982 12.3734 26.9955 15.4955 26.9955C18.6176 26.9955 19.0084 26.982 20.2348 26.9281C21.4566 26.8742 22.2967 26.6766 23.0244 26.3936C23.7791 26.1016 24.4215 25.7062 25.0594 25.0684C25.6973 24.4305 26.0926 23.7881 26.3846 23.0334C26.6676 22.3012 26.8652 21.4656 26.9191 20.2437C26.973 19.0174 26.9865 18.6266 26.9865 15.5045C26.9865 12.3824 26.973 11.9916 26.9191 10.7652C26.8652 9.54336 26.6676 8.70332 26.3846 7.97559C26.1016 7.21191 25.7107 6.56953 25.0684 5.93164C24.4305 5.29375 23.7881 4.89844 23.0334 4.60645C22.3012 4.32344 21.4656 4.12578 20.2437 4.07187C19.0129 4.01348 18.6221 4 15.5 4Z" fill="white"/>
<path d="M15.5 9.59277C12.2387 9.59277 9.59277 12.2387 9.59277 15.5C9.59277 18.7613 12.2387 21.4072 15.5 21.4072C18.7613 21.4072 21.4072 18.7613 21.4072 15.5C21.4072 12.2387 18.7613 9.59277 15.5 9.59277ZM15.5 19.3318C13.3842 19.3318 11.6682 17.6158 11.6682 15.5C11.6682 13.3842 13.3842 11.6682 15.5 11.6682C17.6158 11.6682 19.3318 13.3842 19.3318 15.5C19.3318 17.6158 17.6158 19.3318 15.5 19.3318Z" fill="white"/>
<path d="M23.0199 9.35908C23.0199 10.1228 22.4 10.7382 21.6408 10.7382C20.8771 10.7382 20.2617 10.1183 20.2617 9.35908C20.2617 8.59541 20.8816 7.97998 21.6408 7.97998C22.4 7.97998 23.0199 8.5999 23.0199 9.35908Z" fill="white"/>
</g>
<defs>
<clipPath id="clip0_199_658">
<rect width="23" height="23" fill="white" transform="translate(4 4)"/>
</clipPath>
</defs>
</svg>
