<svg width="30" height="30" viewBox="0 0 30 30" fill="none" xmlns="http://www.w3.org/2000/svg">
<rect width="30" height="30" rx="15" fill="#3E3F3B"/>
<path d="M20.3613 4H16.4851V19.6666C16.4851 21.5333 14.9943 23.0667 13.139 23.0667C11.2837 23.0667 9.79291 21.5333 9.79291 19.6666C9.79291 17.8334 11.2506 16.3333 13.0396 16.2667V12.3333C9.09719 12.4 5.91675 15.6333 5.91675 19.6666C5.91675 23.7334 9.16344 27 13.1721 27C17.1808 27 20.4275 23.7 20.4275 19.6666V11.6333C21.8852 12.7 23.6742 13.3333 25.5626 13.3667V9.43333C22.6472 9.33334 20.3613 6.93333 20.3613 4Z" fill="white"/>
</svg>
