<svg width="30" height="30" viewBox="0 0 30 30" fill="none" xmlns="http://www.w3.org/2000/svg">
<rect width="30" height="30" rx="15" fill="#3E3F3B"/>
<path d="M4 27L5.62442 21.0938C4.62204 19.365 4.09533 17.4052 4.09629 15.3955C4.09918 9.11271 9.23629 4 15.5481 4C18.6112 4.00096 21.4864 5.18833 23.6491 7.34267C25.8108 9.497 27.001 12.3605 27 15.4061C26.9971 21.6899 21.86 26.8026 15.5481 26.8026C13.632 26.8016 11.7437 26.3234 10.0711 25.4149L4 27ZM10.3523 23.3516C11.9661 24.3052 13.5068 24.8763 15.5443 24.8773C20.7902 24.8773 25.0636 20.628 25.0665 15.4042C25.0684 10.1697 20.8152 5.92625 15.552 5.92433C10.3022 5.92433 6.03173 10.1736 6.02981 15.3965C6.02885 17.5288 6.65666 19.1254 7.71104 20.7957L6.7491 24.2917L10.3523 23.3516ZM21.3169 18.1153C21.2457 17.9965 21.055 17.9255 20.7681 17.7828C20.4821 17.64 19.0753 16.9509 18.8124 16.856C18.5505 16.7612 18.3598 16.7133 18.1682 16.9988C17.9776 17.2835 17.4287 17.9255 17.2621 18.1153C17.0955 18.305 16.928 18.329 16.642 18.1862C16.356 18.0434 15.4336 17.7435 14.3407 16.7727C13.4904 16.0175 12.9156 15.085 12.749 14.7995C12.5824 14.5148 12.7316 14.3605 12.8742 14.2187C13.0032 14.0912 13.1601 13.8862 13.3036 13.7194C13.449 13.5546 13.4962 13.4358 13.5925 13.245C13.6878 13.0553 13.6406 12.8885 13.5684 12.7458C13.4962 12.6039 12.9242 11.2019 12.6864 10.6317C12.4534 10.0768 12.2174 10.1515 12.0422 10.1429L11.4933 10.1333C11.3027 10.1333 10.9926 10.2042 10.7307 10.4898C10.4688 10.7754 9.7293 11.4635 9.7293 12.8655C9.7293 14.2676 10.7548 15.6217 10.8973 15.8115C11.0408 16.0012 12.9146 18.8781 15.785 20.1115C16.4677 20.4048 17.0012 20.5801 17.4162 20.7114C18.1018 20.928 18.7257 20.8973 19.2187 20.8245C19.7686 20.743 20.9115 20.1355 21.1503 19.4704C21.3891 18.8043 21.3891 18.2341 21.3169 18.1153Z" fill="white"/>
</svg>
